<svg width="16" height="16" viewBox="0 0 16 16" fill="none" xmlns="http://www.w3.org/2000/svg">
<path d="M9.33939 4.76642C10.0512 5.06127 10.6459 5.58275 11.0311 6.25L10.0611 6.81C9.79918 6.35627 9.39482 6.00166 8.91078 5.80117C8.42675 5.60067 7.89008 5.5655 7.38401 5.7011C6.87794 5.8367 6.43076 6.13549 6.11182 6.55115C5.79288 6.9668 5.62 7.47608 5.62 8C5.62 8.52392 5.79288 9.0332 6.11182 9.44885C6.43076 9.8645 6.87794 10.1633 7.38401 10.2989C7.89008 10.4345 8.42675 10.3993 8.91079 10.1988C9.39482 9.99834 9.79918 9.64373 10.0611 9.19L11.0311 9.75C10.6459 10.4172 10.0512 10.9387 9.33939 11.2336C8.62757 11.5284 7.83835 11.5802 7.09413 11.3807C6.34992 11.1813 5.69229 10.7419 5.22326 10.1307C4.75423 9.51941 4.5 8.77047 4.5 8C4.5 7.22953 4.75423 6.48059 5.22326 5.86934C5.69229 5.25808 6.34991 4.81867 7.09413 4.61926C7.83835 4.41985 8.62757 4.47158 9.33939 4.76642Z" fill="white"/>
<path d="M7.52032 0.436325C7.8607 0.363663 8.21283 0.363245 8.55353 0.434372C8.93856 0.514798 9.30167 0.722064 10.0272 1.13554L12.9705 2.8123C13.2144 2.95131 13.4166 3.06984 13.5897 3.17363C12.6596 3.53788 11.9998 4.44165 11.9998 5.50078C12.0001 6.88111 13.1195 8.00057 14.4998 8.00078C14.6644 8.00078 14.8255 7.9833 14.9813 7.95293L14.9764 9.0457C14.8221 9.01594 14.6627 8.9998 14.4998 8.9998C13.1193 8.99991 11.9999 10.1192 11.9998 11.4998C11.9998 12.1858 12.277 12.8069 12.7244 13.2586L9.95001 14.8572C9.22652 15.2739 8.86397 15.4822 8.47931 15.5643C8.13919 15.6368 7.78753 15.6373 7.44708 15.5662C7.0621 15.4858 6.69879 15.2795 5.97345 14.866L3.03009 13.1883C2.29137 12.7673 1.92142 12.5568 1.65314 12.2605C1.41582 11.9983 1.23657 11.6879 1.12775 11.3514C1.00484 10.971 1.00675 10.5454 1.01056 9.69511L1.02521 6.33183C1.02897 5.4942 1.03109 5.07472 1.15411 4.7C1.26315 4.36835 1.44148 4.06248 1.6756 3.80351C1.94021 3.51103 2.30336 3.30152 3.02911 2.88359L6.0506 1.14433C6.774 0.727752 7.13575 0.518482 7.52032 0.436325ZM9.33966 4.76738C8.62796 4.4726 7.83865 4.42061 7.09454 4.61992C6.35044 4.81936 5.69243 5.25875 5.22345 5.86992C4.75455 6.48112 4.49982 7.23042 4.49982 8.00078C4.49994 8.77106 4.75453 9.52049 5.22345 10.1316C5.69244 10.7426 6.35055 11.1823 7.09454 11.3816C7.83854 11.581 8.62805 11.5288 9.33966 11.2342C10.0512 10.9393 10.6459 10.4177 11.0311 9.75078L10.0613 9.19023C9.79946 9.64375 9.39478 9.99859 8.91095 10.199C8.42698 10.3994 7.88959 10.4352 7.38361 10.2996C6.87776 10.164 6.43096 9.8645 6.11212 9.44902C5.79334 9.03353 5.62005 8.52447 5.61993 8.00078C5.61993 7.47697 5.79331 6.96716 6.11212 6.55156C6.4309 6.1362 6.87792 5.83762 7.38361 5.70195C7.88966 5.56636 8.42693 5.60108 8.91095 5.80156C9.39495 6.00205 9.79944 6.35666 10.0613 6.81035L11.0311 6.25078C10.6459 5.58364 10.0513 5.06226 9.33966 4.76738Z" fill="#5660BE"/>
<path d="M14 4H15V7H14V4Z" fill="#5660BE"/>
<path d="M13 5H16V6H13V5Z" fill="#5660BE"/>
<path d="M14 10H15V13H14V10Z" fill="#5660BE"/>
<path d="M13 11H16V12H13V11Z" fill="#5660BE"/>
</svg>
