<svg width="16" height="16" viewBox="0 0 16 16" fill="none" xmlns="http://www.w3.org/2000/svg">
<path d="M12.1304 5.03893C12.3939 5.2029 12.6197 5.4205 12.7925 5.6776C12.9655 5.93484 13.0816 6.2259 13.1334 6.53112C13.3258 6.49629 13.524 6.4784 13.7222 6.47838C14.4689 6.47838 14.8249 6.74622 14.8599 6.77526L14.9996 6.88463L14.942 7.04772C14.8545 7.27984 14.7086 7.48881 14.5338 7.66295C14.2596 7.92425 13.7693 8.24395 12.9703 8.24401H12.8355C12.5147 9.05693 12.0772 9.97417 11.3482 10.7987C10.9109 11.2899 10.3968 11.708 9.82574 12.036C9.13375 12.4287 8.38025 12.704 7.59723 12.8495C7.03159 12.9539 6.45971 12.9999 5.88824 12.9999C4.6169 12.9998 3.49741 12.7616 2.80914 12.3378C2.15207 11.9067 1.65869 11.269 1.40875 10.5262C1.12973 9.77172 0.991476 8.97278 1.00055 8.16881C1.00054 8.11118 1.01242 8.05402 1.03473 8.00084C1.05708 7.94762 1.08919 7.89878 1.13043 7.85826C1.17168 7.81775 1.22121 7.78606 1.27496 7.76451C1.32862 7.74307 1.38609 7.7325 1.44391 7.73326H10.6597C11.0126 7.71819 11.3599 7.63513 11.6812 7.48912C11.3896 7.03617 11.3078 6.50749 11.4478 5.9442C11.5164 5.64982 11.6345 5.36911 11.7974 5.11412L11.9322 4.92272L12.1304 5.03893ZM3.24957 8.99987C2.83559 9.00009 2.49965 9.33585 2.49957 9.74987C2.49957 10.1639 2.83555 10.4996 3.24957 10.4999C3.66379 10.4999 3.99957 10.1641 3.99957 9.74987C3.9995 9.33572 3.66374 8.99987 3.24957 8.99987ZM3.5318 6.15319C3.54609 6.15316 3.56066 6.15636 3.57379 6.16198C3.58683 6.16758 3.5982 6.17613 3.60797 6.18639C3.61768 6.1966 3.62551 6.20837 3.63043 6.22155C3.63533 6.23483 3.63803 6.24941 3.63727 6.26354V7.35534C3.63806 7.36954 3.63535 7.38397 3.63043 7.39733C3.62551 7.41063 3.61777 7.42317 3.60797 7.43346C3.59829 7.44354 3.58664 7.45135 3.57379 7.4569C3.56066 7.46251 3.54609 7.46571 3.5318 7.46569H2.29547C2.23131 7.46569 2.18414 7.41927 2.18414 7.36119V6.25768C2.18416 6.24359 2.18737 6.22962 2.19293 6.21666C2.19857 6.20359 2.20697 6.19129 2.21735 6.18151C2.22767 6.17183 2.24017 6.16489 2.25348 6.16002C2.2669 6.15512 2.2812 6.1524 2.29547 6.15319H3.5318ZM5.23492 6.15319C5.24922 6.15316 5.26378 6.15636 5.27692 6.16198C5.29002 6.16759 5.30226 6.17608 5.31207 6.18639C5.3216 6.1965 5.32869 6.20855 5.33356 6.22155C5.33845 6.23484 5.34115 6.24941 5.34039 6.26354V7.35534C5.34123 7.36993 5.33874 7.38463 5.33356 7.3983C5.32832 7.41199 5.32049 7.42503 5.31012 7.43541C5.29972 7.44577 5.28674 7.4536 5.27301 7.45885C5.25918 7.4641 5.24384 7.46653 5.22906 7.46569H3.9986C3.93446 7.46566 3.88824 7.41339 3.88824 7.35534V6.26354C3.8883 6.23436 3.89974 6.20605 3.92047 6.18541C3.94122 6.16489 3.96934 6.1532 3.9986 6.15319H5.23492ZM6.96149 6.15319C6.97578 6.15316 6.99034 6.15636 7.00348 6.16198C7.0166 6.16759 7.02881 6.17607 7.03864 6.18639C7.04825 6.19659 7.05623 6.20842 7.0611 6.22155C7.06599 6.23484 7.06772 6.2494 7.06696 6.26354V7.35534C7.06775 7.36951 7.06599 7.384 7.0611 7.39733C7.05618 7.41067 7.04845 7.42314 7.03864 7.43346C7.02885 7.44375 7.01655 7.45129 7.00348 7.4569C6.99034 7.46251 6.97578 7.46571 6.96149 7.46569H5.72516C5.66688 7.46563 5.62067 7.41923 5.62067 7.36119V6.25768C5.62074 6.23017 5.63146 6.20395 5.65094 6.18444C5.6706 6.16486 5.69735 6.15322 5.72516 6.15319H6.96149ZM8.67145 6.15319C8.69958 6.15477 8.72624 6.16704 8.74567 6.18737C8.76516 6.20785 8.77592 6.23533 8.77594 6.26354V7.35534C8.77598 7.38361 8.76519 7.41098 8.74567 7.43151C8.72623 7.45193 8.69965 7.46409 8.67145 7.46569H7.43414C7.37591 7.46556 7.32379 7.41919 7.32379 7.36119V6.25768C7.32381 6.24363 7.32607 6.22958 7.3316 6.21666C7.33724 6.20359 7.34564 6.19129 7.35602 6.18151C7.3663 6.17182 7.37888 6.16492 7.39215 6.16002C7.40549 6.15515 7.41996 6.15243 7.43414 6.15319H8.67145ZM10.3922 6.15319C10.4066 6.15323 10.4208 6.15648 10.4341 6.16198C10.4475 6.1675 10.46 6.17522 10.4703 6.18541C10.4805 6.19562 10.4881 6.20822 10.4937 6.22155C10.4993 6.23487 10.5025 6.24912 10.5025 6.26354V7.35534C10.5025 7.36977 10.4992 7.38399 10.4937 7.39733C10.4882 7.41068 10.4805 7.42323 10.4703 7.43346C10.46 7.44371 10.4476 7.45233 10.4341 7.45787C10.4209 7.46332 10.4065 7.46564 10.3922 7.46569H9.15485C9.09666 7.46552 9.05035 7.41916 9.05035 7.36119V6.25768C9.05043 6.23022 9.06122 6.20394 9.08063 6.18444C9.10024 6.16491 9.12711 6.15327 9.15485 6.15319H10.3922ZM5.22906 4.57994C5.24321 4.57916 5.25774 4.581 5.27106 4.5858C5.28443 4.59068 5.29684 4.59853 5.30719 4.60826C5.31746 4.61795 5.32597 4.62952 5.3316 4.64244C5.33724 4.65552 5.34042 4.67021 5.34039 4.68444V5.78209C5.33882 5.81018 5.32671 5.83694 5.30621 5.85631C5.28559 5.87576 5.25748 5.88662 5.22906 5.88659H3.9986C3.93458 5.88656 3.88842 5.83999 3.88824 5.78209V4.68444C3.88974 4.65622 3.90184 4.62966 3.92242 4.61022C3.94304 4.59078 3.97021 4.57992 3.9986 4.57994H5.22906ZM6.96149 4.57994C6.98921 4.57994 7.01604 4.59078 7.03571 4.61022C7.0554 4.62982 7.06696 4.65671 7.06696 4.68444V5.78209C7.06547 5.80924 7.05405 5.83513 7.03473 5.85436C7.01534 5.87364 6.98886 5.88519 6.96149 5.88659H5.72516C5.66699 5.88653 5.62084 5.83998 5.62067 5.78209V4.68444C5.62067 4.65671 5.63125 4.62982 5.65094 4.61022C5.6706 4.59064 5.69735 4.57997 5.72516 4.57994H6.96149ZM8.67145 4.57994C8.69867 4.58145 8.72443 4.59297 8.74371 4.61217C8.76301 4.63146 8.77454 4.65724 8.77594 4.68444V5.78209C8.77446 5.80924 8.76303 5.83513 8.74371 5.85436C8.72443 5.8735 8.69863 5.88509 8.67145 5.88659H7.43414C7.37602 5.88646 7.32399 5.83993 7.32379 5.78209V4.68444C7.32377 4.67021 7.32597 4.65552 7.3316 4.64244C7.3372 4.62952 7.34578 4.61797 7.35602 4.60826C7.36635 4.59852 7.3788 4.5907 7.39215 4.5858C7.4055 4.58093 7.41995 4.57919 7.43414 4.57994H8.67145ZM8.67145 2.99987C8.69863 3.00136 8.72443 3.01295 8.74371 3.03209C8.76303 3.05132 8.77446 3.07721 8.77594 3.10436V4.20201C8.77598 4.23027 8.76517 4.25766 8.74567 4.27819C8.72623 4.29861 8.69965 4.31077 8.67145 4.31237H7.43414C7.37591 4.31224 7.32379 4.26587 7.32379 4.20787V3.10436C7.32381 3.09032 7.32607 3.07626 7.3316 3.06334C7.33724 3.05027 7.34564 3.03797 7.35602 3.02819C7.3663 3.01851 7.37889 3.01159 7.39215 3.0067C7.40549 3.00183 7.41996 2.99912 7.43414 2.99987H8.67145Z" fill="#58B7EF"/>
</svg>
