<svg width="16" height="16" viewBox="0 0 16 16" fill="none" xmlns="http://www.w3.org/2000/svg">
<path d="M7.67676 1C8.13171 1 8.57379 1.15482 8.92871 1.43945L12.251 4.10449C12.7243 4.48408 13 5.0583 13 5.66504V11C13 12.6569 11.6569 14 10 14H5C3.34315 14 2 12.6569 2 11V4C2 2.34315 3.34315 1 5 1H7.67676ZM3.96436 10.5C3.7079 10.5 3.5 10.7079 3.5 10.9644C3.5 11.2208 3.7079 11.4287 3.96436 11.4287H8.07764C8.33409 11.4287 8.54199 11.2208 8.54199 10.9644C8.54199 10.7079 8.33409 10.5 8.07764 10.5H3.96436ZM3.5 8.46436C3.5 8.72081 3.7079 8.92871 3.96436 8.92871H9.91064C10.1671 8.92871 10.375 8.72081 10.375 8.46436C10.375 8.2079 10.1671 8 9.91064 8H3.96436C3.7079 8 3.5 8.2079 3.5 8.46436ZM3.5 5.96436C3.5 6.22081 3.7079 6.42871 3.96436 6.42871H11.2856C11.5421 6.42871 11.75 6.22081 11.75 5.96436C11.75 5.7079 11.5421 5.5 11.2856 5.5H3.96436C3.7079 5.5 3.5 5.7079 3.5 5.96436Z" fill="#A67CF8"/>
</svg>
