<svg width="16" height="16" viewBox="0 0 16 16" fill="none" xmlns="http://www.w3.org/2000/svg">
<path d="M14.7453 7.14897L8.85115 1.25442C8.68809 1.09151 8.46703 1 8.23653 1C8.00604 1 7.78497 1.09151 7.62191 1.25442L7.35488 1.52133C6.82639 2.04958 6.82623 2.90625 7.35451 3.43471L7.5428 3.62306C7.79233 3.87267 8.17522 3.92228 8.51888 4.00271C8.70724 4.04679 8.87943 4.14293 9.01578 4.28017C9.15214 4.4174 9.24717 4.59019 9.29005 4.77884C9.36818 5.12265 9.41663 5.50549 9.66589 5.75484L10.2576 6.34677C10.5616 6.6508 11.0394 6.70284 11.4434 6.84955C11.6657 6.93024 11.8536 7.08468 11.9758 7.28711C12.098 7.48955 12.1472 7.72776 12.1151 7.96203C12.083 8.1963 11.9715 8.41249 11.7993 8.57457C11.6271 8.73664 11.4046 8.83481 11.1688 8.85271C10.933 8.87061 10.6982 8.80716 10.5035 8.67293C10.3089 8.53871 10.1661 8.34181 10.0989 8.11507C10.0727 8.02635 10.0586 7.93515 10.0567 7.84391C10.0511 7.58525 10.0155 7.30765 9.83261 7.12468C9.42924 6.72115 8.73935 7.00684 8.73935 7.57741V9.00043C8.73935 9.43093 9.03997 9.80658 9.22027 10.1975C9.31937 10.4123 9.34183 10.6547 9.28392 10.8841C9.22601 11.1135 9.09123 11.3161 8.90203 11.4582C8.71283 11.6002 8.48066 11.6732 8.2442 11.6648C8.00775 11.6565 7.7813 11.5673 7.60261 11.4122C7.42391 11.2572 7.30377 11.0455 7.26219 10.8126C7.22062 10.5797 7.26013 10.3396 7.37415 10.1323C7.57904 9.75969 7.88875 9.39556 7.88875 8.97038V6.37597C7.88875 6.12903 7.7258 5.91766 7.55087 5.74337C7.45417 5.64701 7.37749 5.53246 7.32528 5.40632C7.27307 5.28018 7.24635 5.14495 7.24667 5.00843C7.24724 4.76153 7.21303 4.49685 7.03842 4.3223L6.71187 3.99587C6.20588 3.49006 5.38566 3.49016 4.87979 3.99609L1.75469 7.12155C1.59161 7.28462 1.5 7.5058 1.5 7.73642C1.5 7.96704 1.59161 8.18822 1.75469 8.35129L7.64881 14.2453C7.81188 14.4084 8.03306 14.5 8.26369 14.5C8.49431 14.5 8.71549 14.4084 8.87857 14.2453L14.7453 8.37871C14.9084 8.21555 15 7.99429 15 7.76358C15 7.53287 14.9084 7.31161 14.7453 7.14844" fill="#E26350"/>
</svg>
