<svg width="16" height="16" viewBox="0 0 16 16" fill="none" xmlns="http://www.w3.org/2000/svg">
<path d="M14 12C14 13.1046 13.1046 14 12 14H4C2.89543 14 2 13.1046 2 12V4C2 2.89543 2.89543 2 4 2H12C13.1046 2 14 2.89543 14 4V12ZM12.4453 8.49316C12.025 8.11503 11.5611 8.05162 11.0684 8.16699C10.4935 8.30161 10.0685 8.62192 9.71582 9.2373C9.38736 9.80775 9.23732 10.4486 9.32422 11.1729C9.38218 11.6663 9.5608 12.0833 9.8457 12.4102C10.1367 12.7412 10.4745 12.911 10.8433 12.9601C10.9632 12.9761 11.0847 12.9665 11.2048 12.952C11.2731 12.9437 11.3422 12.9339 11.4111 12.917C11.8604 12.7952 12.2515 12.5252 12.5703 12.0957C13.0195 11.4932 13.2081 10.7882 13.126 9.92285C13.0631 9.30759 12.8269 8.83927 12.4453 8.49316ZM8.55762 8.36133C8.1664 8.00885 7.73133 7.93801 7.27734 8.04688C6.7218 8.18149 6.2678 8.56011 5.9248 9.15625C5.60598 9.70751 5.45089 10.3355 5.51367 11.0342C5.5668 11.6237 5.76967 12.0981 6.12695 12.457C6.51339 12.8416 6.95338 12.9641 7.42676 12.8809C8.00157 12.7783 8.4559 12.3999 8.80371 11.791C9.01627 11.4192 9.14706 10.9957 9.2002 10.5342C9.23154 10.2533 8.9907 10.0146 8.7081 10.0146H7.4707C7.39848 10.0146 7.36418 10.0787 7.34961 10.1172C7.28198 10.2838 7.16632 10.6177 7.10352 10.8164C7.0697 10.9254 7.09386 11.0088 7.19531 11.0088H7.85638C7.97868 11.0088 8.06126 11.142 7.99707 11.2461C7.77973 11.5729 7.50417 11.7265 7.17578 11.6689C6.79414 11.5984 6.52827 11.1749 6.52344 10.6621C6.51869 10.143 6.68817 9.72632 7.0166 9.44434C7.29187 9.20739 7.5864 9.14999 7.89062 9.34863C7.99188 9.41265 8.04487 9.48305 8.11719 9.5918C8.17999 9.68795 8.18535 9.68189 8.25781 9.65625C8.55732 9.55369 8.76499 9.47659 9.06934 9.37402C9.15995 9.34396 9.10359 9.21859 9.06938 9.12946C8.94994 8.8182 8.78168 8.55777 8.55762 8.36133ZM11.1748 9.32031C11.6336 9.17953 12.0731 9.53849 12.1602 10.1729C12.1698 10.237 12.17 10.3014 12.1748 10.3848C12.1506 10.9359 11.943 11.3466 11.5615 11.6094C11.3055 11.7825 11.0391 11.8013 10.7734 11.6475C10.4257 11.4423 10.2422 10.9355 10.3291 10.4355C10.4354 9.83317 10.7256 9.4549 11.1748 9.32031ZM4.32324 10.4873C4.30413 10.4876 4.28502 10.5064 4.27539 10.5254L4.20801 10.6855C4.19835 10.7048 4.20333 10.7246 4.22266 10.7246L5.27539 10.7305C5.28988 10.7304 5.30957 10.7112 5.30957 10.6855L5.31836 10.5322C5.31836 10.5067 5.30924 10.4874 5.29004 10.4873H4.32324ZM3.19336 9.89746C3.17404 9.89746 3.14931 9.91046 3.13965 9.92969L3.03906 10.1025C3.02947 10.1216 3.03375 10.1346 3.05273 10.1348L5.33789 10.1279C5.3572 10.1279 5.37699 10.1154 5.38184 10.0898L5.41992 9.93555C5.42458 9.91651 5.41549 9.89769 5.39648 9.89746H3.19336ZM3.92285 9.30762C3.90353 9.30762 3.8788 9.32061 3.86914 9.33984L3.76855 9.5127C3.75896 9.5318 3.76322 9.54475 3.78223 9.54492L5.53125 9.55176C5.54574 9.55176 5.57042 9.53193 5.58008 9.5127L5.66211 9.3457C5.67144 9.32667 5.66653 9.30769 5.64746 9.30762H3.92285Z" fill="#4996DD"/>
</svg>
