<svg width="16" height="16" viewBox="0 0 16 16" fill="none" xmlns="http://www.w3.org/2000/svg">
<path d="M11 1C12.6569 1 14 2.34315 14 4V11C14 12.6569 12.6569 14 11 14H5C3.34315 14 2 12.6569 2 11V4C2 2.34315 3.34315 1 5 1H11ZM6.86914 5.91992C6.68641 5.54591 6.15344 5.54591 5.9707 5.91992L3.35156 11.2803C3.18927 11.6124 3.43109 12 3.80078 12H12.1592C12.5383 12 12.7795 11.5949 12.5986 11.2617L10.8086 7.96289C10.6193 7.61471 10.119 7.61468 9.92969 7.96289L8.84375 9.96191L6.86914 5.91992ZM10.8867 2.5166C10.1964 2.5166 9.63675 3.07627 9.63672 3.7666C9.63672 4.45696 10.1964 5.0166 10.8867 5.0166C11.5769 5.01641 12.1367 4.45684 12.1367 3.7666C12.1367 3.07639 11.5769 2.51679 10.8867 2.5166Z" fill="#66ABC9"/>
</svg>
