<svg width="16" height="16" viewBox="0 0 16 16" fill="none" xmlns="http://www.w3.org/2000/svg">
<path d="M3.41358 2.49939C2.79598 2.49939 2.29532 3.02092 2.29532 3.66426V6.69994C2.29532 9.35127 4.35867 11.5006 6.90394 11.5006C9.21479 11.5006 11.1285 9.72894 11.4613 7.41847C11.4835 4.66667 11.4835 6 11.4835 3.39952C11.3685 2.88372 10.9244 2.49939 10.3943 2.49939H3.41358Z" stroke="#FF7B61" stroke-width="1.5"/>
<path d="M2.61531 13.5006H12.8553" stroke="#FF7B61" stroke-width="1.5" stroke-linecap="round"/>
<mask id="mask0_11_13" style="mask-type:alpha" maskUnits="userSpaceOnUse" x="12" y="2" width="4" height="7">
<path d="M15 3H13V8H15V3Z" fill="#D9D9D9" stroke="#F87171"/>
</mask>
<g mask="url(#mask0_11_13)">
<path d="M12.5459 7.58333C13.6505 7.58333 14.5459 6.83714 14.5459 5.91667C14.5459 4.99619 13.6505 4.25 12.5459 4.25C11.4413 4.25 10.5459 4.99619 10.5459 5.91667C10.5459 6.83714 11.4413 7.58333 12.5459 7.58333Z" stroke="#FF7B61"/>
</g>
</svg>
