<svg width="16" height="16" viewBox="0 0 16 16" fill="none" xmlns="http://www.w3.org/2000/svg">
<path d="M13 3C14.1046 3 15 3.89543 15 5V11C15 12.1046 14.1046 13 13 13H3C1.89543 13 1 12.1046 1 11V5C1 3.89543 1.89543 3 3 3H13ZM3.2002 5C3.08974 5 3 5.08974 3 5.2002V10.7998C3 10.9103 3.08974 11 3.2002 11H4.08984C4.2003 11 4.29004 10.9103 4.29004 10.7998V8.29688C4.29004 8.09286 4.56007 8.02018 4.66309 8.19629L5.4082 9.46973C5.48545 9.60147 5.67564 9.60142 5.75293 9.46973L6.49805 8.19629C6.60106 8.02018 6.87109 8.09286 6.87109 8.29688V10.7998C6.87109 10.9103 6.96083 11 7.07129 11H7.96094C8.07139 11 8.16113 10.9103 8.16113 10.7998V5.2002C8.16113 5.08974 8.07139 5 7.96094 5H6.98535C6.91461 5.00012 6.84935 5.03768 6.81348 5.09863L5.75293 6.91113C5.67561 7.0426 5.48548 7.04265 5.4082 6.91113L4.34863 5.09863C4.31277 5.03743 4.24672 5.00006 4.17578 5H3.2002ZM10.6191 5C10.5088 5.00012 10.4189 5.08981 10.4189 5.2002V7.88867C10.4187 7.9988 10.3299 8.08769 10.2197 8.08789H9.50195C9.34244 8.08802 9.24761 8.26653 9.33594 8.39941L10.8984 10.749C10.9776 10.8681 11.1523 10.8681 11.2314 10.749L12.7939 8.39941C12.8823 8.2665 12.7865 8.08793 12.627 8.08789H11.9102C11.7998 8.08789 11.7102 7.99893 11.71 7.88867V5.2002C11.71 5.08977 11.6202 5.00005 11.5098 5H10.6191Z" fill="#2A95C4"/>
</svg>
