<svg width="16" height="16" viewBox="0 0 16 16" fill="none" xmlns="http://www.w3.org/2000/svg">
<path fill-rule="evenodd" clip-rule="evenodd" d="M7.49998 7.5H9.39998C9.96007 7.5 10.2401 7.5 10.454 7.39101C10.6422 7.29513 10.7951 7.14215 10.891 6.95399C11 6.74008 11 6.46005 11 5.90001V5.2C11 4.08323 11 3.52485 10.8532 3.07295C10.5564 2.15964 9.84037 1.44358 8.92703 1.14683C8.47513 1 7.91675 1 6.79998 1C6.05547 1 5.68322 1 5.38196 1.09789C4.77308 1.29572 4.29571 1.77309 4.09789 2.38197C3.99999 2.68323 3.99999 3.05549 3.99999 3.80001V4H7.49998V5H4.71428C2.66293 5 1 6.66294 1 8.71429V9.00001C1 10.3807 2.11929 11.5 3.49999 11.5C3.49999 10.0998 3.49999 9.3998 3.77247 8.86502C4.01216 8.39462 4.39462 8.01218 4.86501 7.77248C5.39979 7.5 6.09985 7.5 7.49998 7.5ZM6.49998 2.75C6.49998 2.3358 6.16419 2 5.74999 2C5.33578 2 4.99999 2.3358 4.99999 2.75C4.99999 3.16421 5.33578 3.5 5.74999 3.5C6.16419 3.5 6.49998 3.16421 6.49998 2.75Z" fill="#549FDE"/>
<path fill-rule="evenodd" clip-rule="evenodd" d="M8.5 9H6.6C6.03995 9 5.75992 9.00001 5.54601 9.10899C5.35785 9.20487 5.20487 9.35786 5.10899 9.54601C5 9.75992 5 10.04 5 10.6V11.3C5 12.4168 5 12.9752 5.14682 13.4271C5.44358 14.3404 6.15964 15.0564 7.07294 15.3532C7.52485 15.5 8.08323 15.5 9.2 15.5C9.94451 15.5 10.3168 15.5 10.618 15.4021C11.2269 15.2043 11.7043 14.7269 11.9021 14.118C12 13.8168 12 13.4445 12 12.7V12.5H8.5V11.5H11.2857C13.3371 11.5 15 9.83706 15 7.78571V7.5C15 6.11929 13.8807 5 12.5 5C12.5 6.40013 12.5 7.10021 12.2275 7.63498C11.9878 8.10538 11.6054 8.48783 11.135 8.72752C10.6002 9.00001 9.90015 9 8.5 9ZM9.5 13.75C9.5 14.1642 9.83575 14.5 10.25 14.5C10.6642 14.5 11 14.1642 11 13.75C11 13.3358 10.6642 13 10.25 13C9.83575 13 9.5 13.3358 9.5 13.75Z" fill="#F6A74B"/>
</svg>
