<svg width="16" height="16" viewBox="0 0 16 16" fill="none" xmlns="http://www.w3.org/2000/svg">
<g clip-path="url(#clip0_10_57)">
<mask id="mask0_10_57" style="mask-type:luminance" maskUnits="userSpaceOnUse" x="0" y="0" width="16" height="16">
<path d="M15.5 0.5V15.5H0.5V0.5H15.5Z" fill="white" stroke="white"/>
</mask>
<g mask="url(#mask0_10_57)">
<path d="M8 11.5C9.98409 11.5 11.8041 11.1563 13.1467 10.5809C13.8171 10.2936 14.3916 9.93859 14.8058 9.51895C15.222 9.09716 15.5 8.5833 15.5 8C15.5 7.4167 15.222 6.90284 14.8058 6.48105C14.3916 6.06141 13.8171 5.70643 13.1467 5.41911C11.8041 4.84369 9.98409 4.5 8 4.5C6.01591 4.5 4.19593 4.84369 2.85329 5.41911C2.18286 5.70643 1.60837 6.06141 1.19422 6.48105C0.77795 6.90284 0.5 7.4167 0.5 8C0.5 8.5833 0.77795 9.09716 1.19422 9.51895C1.60837 9.93859 2.18286 10.2936 2.85329 10.5809C4.19593 11.1563 6.01591 11.5 8 11.5Z" stroke="#00B8DB"/>
<path d="M8 6.5C8.82843 6.5 9.5 7.17157 9.5 8C9.5 8.82843 8.82843 9.5 8 9.5C7.17157 9.5 6.5 8.82843 6.5 8C6.5 7.17157 7.17157 6.5 8 6.5Z" fill="#00B8DB" stroke="#00B8DB"/>
<path d="M11.0311 9.75C12.0231 8.03173 12.6355 6.28373 12.8085 4.83327C12.8949 4.109 12.8747 3.43398 12.7183 2.8655C12.5612 2.2941 12.2551 1.79646 11.75 1.50481C11.2449 1.21316 10.6609 1.19694 10.0874 1.34655C9.51695 1.49539 8.92229 1.81543 8.33824 2.25238C7.1686 3.12743 5.96097 4.53173 4.96892 6.25C3.97688 7.96827 3.36453 9.71627 3.19154 11.1667C3.10516 11.891 3.12532 12.566 3.28167 13.1345C3.43881 13.7059 3.74486 14.2035 4.25001 14.4952C4.75516 14.7868 5.33916 14.8031 5.91257 14.6535C6.48307 14.5046 7.07773 14.1846 7.66178 13.7476C8.83142 12.8726 10.039 11.4683 11.0311 9.75Z" stroke="#00B8DB"/>
<path d="M11.0311 6.25C10.039 4.53173 8.83142 3.12743 7.66177 2.25238C7.07773 1.81543 6.48306 1.49539 5.91257 1.34655C5.33916 1.19694 4.75516 1.21316 4.25001 1.50481C3.74486 1.79646 3.43881 2.29411 3.28167 2.8655C3.12532 3.43398 3.10515 4.109 3.19154 4.83327C3.36453 6.28374 3.97688 8.03173 4.96892 9.75C5.96097 11.4683 7.1686 12.8726 8.33825 13.7476C8.92229 14.1846 9.51695 14.5046 10.0874 14.6535C10.6609 14.8031 11.2449 14.7868 11.75 14.4952C12.2551 14.2035 12.5612 13.7059 12.7183 13.1345C12.8747 12.566 12.8949 11.891 12.8085 11.1667C12.6355 9.71627 12.0231 7.96827 11.0311 6.25Z" stroke="#00B8DB"/>
</g>
</g>
<defs>
<clipPath id="clip0_10_57">
<rect width="16" height="16" fill="white"/>
</clipPath>
</defs>
</svg>
