<svg width="16" height="16" viewBox="0 0 16 16" fill="none" xmlns="http://www.w3.org/2000/svg">
<path d="M0.453339 8H15.5467V13.3333C15.5467 14.5867 14.5867 15.5467 13.3333 15.5467H2.66667C1.41334 15.5467 0.453339 14.5867 0.453339 13.3333V8Z" fill="black"/>
<path d="M3.51205 7.15461C3.34485 6.9874 3.13182 6.87353 2.8999 6.8274C2.66798 6.78127 2.42759 6.80494 2.20912 6.89543C1.99066 6.98592 1.80393 7.13916 1.67256 7.33577C1.54119 7.53238 1.47107 7.76353 1.47107 8C1.47107 8.23646 1.54119 8.46761 1.67256 8.66423C1.80393 8.86084 1.99066 9.01408 2.20912 9.10457C2.42759 9.19506 2.66798 9.21873 2.8999 9.1726C3.13182 9.12646 3.34485 9.01259 3.51205 8.84538H12.488C12.6552 9.01259 12.8682 9.12646 13.1002 9.1726C13.3321 9.21873 13.5725 9.19506 13.7909 9.10457C14.0094 9.01408 14.1961 8.86084 14.3275 8.66423C14.4589 8.46761 14.529 8.23646 14.529 8C14.529 7.76353 14.4589 7.53238 14.3275 7.33577C14.1961 7.13916 14.0094 6.98592 13.7909 6.89543C13.5725 6.80494 13.3321 6.78127 13.1002 6.8274C12.8682 6.87353 12.6552 6.9874 12.488 7.15461H3.51205Z" fill="#FFB13B"/>
<path d="M5.42432 4.22876C5.42432 3.9923 5.3542 3.76114 5.22283 3.56453C5.09146 3.36792 4.90474 3.21467 4.68628 3.12418C4.46781 3.03369 4.22742 3.01001 3.9955 3.05614C3.76358 3.10227 3.55055 3.21614 3.38335 3.38335C3.21614 3.55055 3.10227 3.76358 3.05614 3.9955C3.01001 4.22742 3.03369 4.46782 3.12418 4.68628C3.21467 4.90474 3.36792 5.09146 3.56453 5.22283C3.76114 5.3542 3.9923 5.42432 4.22876 5.42432L10.5757 11.7713C10.5757 12.0077 10.6458 12.2389 10.7772 12.4355C10.9086 12.6321 11.0953 12.7854 11.3138 12.8759C11.5322 12.9663 11.7726 12.99 12.0045 12.9439C12.2364 12.8978 12.4495 12.7839 12.6167 12.6167C12.7839 12.4495 12.8978 12.2364 12.9439 12.0045C12.99 11.7726 12.9663 11.5322 12.8758 11.3138C12.7854 11.0953 12.6321 10.9086 12.4355 10.7772C12.2389 10.6458 12.0077 10.5757 11.7713 10.5757L5.42432 4.22876Z" fill="#FFB13B"/>
<path d="M8.84538 3.51205C9.01259 3.34485 9.12646 3.13182 9.1726 2.8999C9.21873 2.66798 9.19506 2.42759 9.10457 2.20912C9.01408 1.99066 8.86084 1.80393 8.66423 1.67256C8.46761 1.54119 8.23646 1.47107 8 1.47107C7.76353 1.47107 7.53238 1.54119 7.33577 1.67256C7.13916 1.80393 6.98592 1.99066 6.89543 2.20912C6.80494 2.42759 6.78127 2.66798 6.8274 2.8999C6.87353 3.13182 6.9874 3.34485 7.15461 3.51205V12.488C6.9874 12.6552 6.87353 12.8682 6.8274 13.1002C6.78127 13.3321 6.80494 13.5725 6.89543 13.7909C6.98592 14.0094 7.13916 14.1961 7.33577 14.3275C7.53238 14.4589 7.76353 14.529 8 14.529C8.23646 14.529 8.46761 14.4589 8.66423 14.3275C8.86084 14.1961 9.01408 14.0094 9.10457 13.7909C9.19506 13.5725 9.21873 13.3321 9.1726 13.1002C9.12646 12.8682 9.01259 12.6552 8.84538 12.488V3.51205Z" fill="#FFB13B"/>
<path d="M11.7712 5.42432C12.0077 5.42432 12.2389 5.35421 12.4355 5.22284C12.6321 5.09147 12.7853 4.90474 12.8758 4.68628C12.9663 4.46782 12.99 4.22743 12.9439 3.99551C12.8977 3.76359 12.7839 3.55055 12.6167 3.38335C12.4494 3.21615 12.2364 3.10228 12.0045 3.05615C11.7726 3.01002 11.5322 3.03369 11.3137 3.12419C11.0953 3.21468 10.9085 3.36792 10.7772 3.56453C10.6458 3.76115 10.5757 3.9923 10.5757 4.22876L4.22873 10.5757C3.99227 10.5757 3.76111 10.6458 3.5645 10.7772C3.36788 10.9086 3.21464 11.0953 3.12415 11.3138C3.03366 11.5322 3.00998 11.7726 3.05611 12.0045C3.10224 12.2365 3.21611 12.4495 3.38332 12.6167C3.55052 12.7839 3.76355 12.8978 3.99547 12.9439C4.22739 12.99 4.46778 12.9663 4.68625 12.8759C4.90471 12.7854 5.09143 12.6321 5.2228 12.4355C5.35417 12.2389 5.42429 12.0077 5.42429 11.7713L11.7712 5.42432Z" fill="#FFB13B"/>
<path d="M3.51205 7.15461C3.34485 6.9874 3.13182 6.87353 2.8999 6.8274C2.66798 6.78127 2.42759 6.80494 2.20912 6.89543C1.99066 6.98592 1.80393 7.13916 1.67256 7.33577C1.54119 7.53238 1.47107 7.76353 1.47107 8C1.47107 8.23646 1.54119 8.46761 1.67256 8.66423C1.80393 8.86084 1.99066 9.01408 2.20912 9.10457C2.42759 9.19506 2.66798 9.21873 2.8999 9.1726C3.13182 9.12646 3.34485 9.01259 3.51205 8.84538H12.488C12.6552 9.01259 12.8682 9.12646 13.1002 9.1726C13.3321 9.21873 13.5725 9.19506 13.7909 9.10457C14.0094 9.01408 14.1961 8.86084 14.3275 8.66423C14.4589 8.46761 14.529 8.23646 14.529 8C14.529 7.76353 14.4589 7.53238 14.3275 7.33577C14.1961 7.13916 14.0094 6.98592 13.7909 6.89543C13.5725 6.80494 13.3321 6.78127 13.1002 6.8274C12.8682 6.87353 12.6552 6.9874 12.488 7.15461H3.51205Z" fill="#FFB13B"/>
<path d="M5.42432 4.22876C5.42432 3.9923 5.3542 3.76114 5.22283 3.56453C5.09146 3.36792 4.90474 3.21467 4.68628 3.12418C4.46781 3.03369 4.22742 3.01001 3.9955 3.05614C3.76358 3.10227 3.55055 3.21614 3.38335 3.38335C3.21614 3.55055 3.10227 3.76358 3.05614 3.9955C3.01001 4.22742 3.03369 4.46782 3.12418 4.68628C3.21467 4.90474 3.36792 5.09146 3.56453 5.22283C3.76114 5.3542 3.9923 5.42432 4.22876 5.42432L10.5757 11.7713C10.5757 12.0077 10.6458 12.2389 10.7772 12.4355C10.9086 12.6321 11.0953 12.7854 11.3138 12.8759C11.5322 12.9663 11.7726 12.99 12.0045 12.9439C12.2364 12.8978 12.4495 12.7839 12.6167 12.6167C12.7839 12.4495 12.8978 12.2364 12.9439 12.0045C12.99 11.7726 12.9663 11.5322 12.8758 11.3138C12.7854 11.0953 12.6321 10.9086 12.4355 10.7772C12.2389 10.6458 12.0077 10.5757 11.7713 10.5757L5.42432 4.22876Z" fill="#FFB13B"/>
<path d="M8.84538 3.51205C9.01259 3.34485 9.12646 3.13182 9.1726 2.8999C9.21873 2.66798 9.19506 2.42759 9.10457 2.20912C9.01408 1.99066 8.86084 1.80393 8.66423 1.67256C8.46761 1.54119 8.23646 1.47107 8 1.47107C7.76353 1.47107 7.53238 1.54119 7.33577 1.67256C7.13916 1.80393 6.98592 1.99066 6.89543 2.20912C6.80494 2.42759 6.78127 2.66798 6.8274 2.8999C6.87353 3.13182 6.9874 3.34485 7.15461 3.51205V12.488C6.9874 12.6552 6.87353 12.8682 6.8274 13.1002C6.78127 13.3321 6.80494 13.5725 6.89543 13.7909C6.98592 14.0094 7.13916 14.1961 7.33577 14.3275C7.53238 14.4589 7.76353 14.529 8 14.529C8.23646 14.529 8.46761 14.4589 8.66423 14.3275C8.86084 14.1961 9.01408 14.0094 9.10457 13.7909C9.19506 13.5725 9.21873 13.3321 9.1726 13.1002C9.12646 12.8682 9.01259 12.6552 8.84538 12.488V3.51205Z" fill="#FFB13B"/>
<path d="M11.7712 5.42432C12.0077 5.42432 12.2389 5.35421 12.4355 5.22284C12.6321 5.09147 12.7853 4.90474 12.8758 4.68628C12.9663 4.46782 12.99 4.22743 12.9439 3.99551C12.8977 3.76359 12.7839 3.55055 12.6167 3.38335C12.4494 3.21615 12.2364 3.10228 12.0045 3.05615C11.7726 3.01002 11.5322 3.03369 11.3137 3.12419C11.0953 3.21468 10.9085 3.36792 10.7772 3.56453C10.6458 3.76115 10.5757 3.9923 10.5757 4.22876L4.22873 10.5757C3.99227 10.5757 3.76111 10.6458 3.5645 10.7772C3.36788 10.9086 3.21464 11.0953 3.12415 11.3138C3.03366 11.5322 3.00998 11.7726 3.05611 12.0045C3.10224 12.2365 3.21611 12.4495 3.38332 12.6167C3.55052 12.7839 3.76355 12.8978 3.99547 12.9439C4.22739 12.99 4.46778 12.9663 4.68625 12.8759C4.90471 12.7854 5.09143 12.6321 5.2228 12.4355C5.35417 12.2389 5.42429 12.0077 5.42429 11.7713L11.7712 5.42432Z" fill="#FFB13B"/>
<path d="M0.453339 8H15.5467V13.3333C15.5467 14.5867 14.5867 15.5467 13.3333 15.5467H2.66667C1.41334 15.5467 0.453339 14.5867 0.453339 13.3333V8Z" fill="black"/>
<path d="M2.71808 11.7674C2.53616 11.586 2.39187 11.3706 2.29352 11.1333C2.19516 10.8961 2.14467 10.6417 2.14496 10.3848C2.14496 9.30474 3.02101 8.42922 4.10059 8.42922C5.18069 8.42922 6.05675 9.30474 6.05675 10.3848H4.91115C4.91115 9.93749 4.54805 9.57493 4.10059 9.57493C3.94047 9.57492 3.78395 9.62238 3.6508 9.7113C3.51765 9.80023 3.41385 9.92662 3.35252 10.0745C3.29118 10.2224 3.27507 10.3852 3.3062 10.5422C3.33734 10.6993 3.41434 10.8436 3.52747 10.9569H3.528C3.67467 11.1041 3.7968 11.1467 4.10059 11.1949C4.64096 11.2511 5.12971 11.414 5.48363 11.7679C5.66554 11.9492 5.80981 12.1647 5.90817 12.402C6.00652 12.6393 6.05702 12.8936 6.05675 13.1505C6.05675 14.2306 5.18069 15.1067 4.10059 15.1067C3.02101 15.1067 2.14496 14.2306 2.14496 13.1505H3.29067C3.29067 13.5979 3.65323 13.961 4.10059 13.961C4.31552 13.9609 4.52164 13.8755 4.67364 13.7235C4.82563 13.5715 4.91106 13.3654 4.91115 13.1505C4.91121 13.0443 4.89032 12.939 4.84967 12.8409C4.80902 12.7427 4.7494 12.6535 4.67424 12.5784H4.67371C4.52704 12.4318 4.31659 12.3812 4.10059 12.341V12.3405C3.57685 12.2602 3.072 12.1214 2.71808 11.7674Z" fill="white"/>
<path d="M9.96821 8.42922L8.58475 15.1067H7.43915L6.05675 8.42922H7.20235L8.01301 12.3399L8.82261 8.42922H9.96821Z" fill="white"/>
<path d="M11.9245 11.1949H13.8801V13.1505H13.8806C13.8806 14.2307 13.0046 15.1068 11.9245 15.1068C10.8443 15.1068 9.96886 14.2307 9.96886 13.1505V10.385H9.96832C9.96832 9.30485 10.8443 8.42933 11.9245 8.42933C13.0041 8.42933 13.8801 9.30485 13.8801 10.385H12.7344C12.7343 10.1702 12.6489 9.96425 12.497 9.81238C12.3452 9.6605 12.1393 9.5751 11.9245 9.57493C11.7097 9.57499 11.5037 9.66035 11.3518 9.81225C11.1999 9.96414 11.1145 10.1701 11.1145 10.385V13.1505C11.1144 13.3653 11.1997 13.5714 11.3515 13.7233C11.5034 13.8753 11.7093 13.9607 11.9242 13.9607C12.139 13.9608 12.345 13.8755 12.497 13.7237C12.6489 13.5718 12.7343 13.3659 12.7344 13.151V12.3411H11.9245V11.1949Z" fill="white"/>
</svg>
