<svg width="16" height="16" viewBox="0 0 16 16" fill="none" xmlns="http://www.w3.org/2000/svg">
<path d="M12 2C13.1046 2 14 2.89543 14 4V12C14 13.1046 13.1046 14 12 14H4C2.89543 14 2 13.1046 2 12V4C2 2.89543 2.89543 2 4 2H12ZM10.6211 7.08008C10.2264 7.08008 9.88468 7.14942 9.59668 7.28809C9.30879 7.42674 9.08477 7.62397 8.9248 7.87988C8.7702 8.13045 8.69342 8.42642 8.69336 8.76758C8.69336 9.22605 8.82882 9.61562 9.10059 9.93555C9.3779 10.2502 9.7648 10.4666 10.2607 10.584L10.8525 10.7197C11.0444 10.7624 11.1941 10.8452 11.3008 10.9678C11.4074 11.0904 11.4609 11.2375 11.4609 11.4082C11.4609 11.6054 11.389 11.7601 11.2451 11.8721C11.1065 11.984 10.9117 12.04 10.6611 12.04C10.3999 12.04 10.1918 11.984 10.0371 11.8721C9.88787 11.7548 9.8126 11.5975 9.8125 11.4004H8.61328C8.61334 11.7416 8.69606 12.0375 8.86133 12.2881C9.02659 12.5385 9.26072 12.7335 9.56445 12.8721C9.86841 13.0107 10.2261 13.0801 10.6367 13.0801C11.0474 13.0801 11.4025 13.0083 11.7012 12.8643C12.0051 12.7203 12.24 12.5172 12.4053 12.2559C12.5758 11.9946 12.6611 11.6928 12.6611 11.3516C12.6611 10.8771 12.5273 10.4875 12.2607 10.1836C11.9941 9.87444 11.6021 9.66124 11.085 9.54395L10.4609 9.40039C10.2797 9.35775 10.1384 9.27738 10.0371 9.16016C9.94111 9.03749 9.89258 8.89039 9.89258 8.71973C9.89264 8.52786 9.95454 8.38156 10.0771 8.28027C10.1997 8.17368 10.3754 8.12018 10.6045 8.12012C10.8498 8.12012 11.037 8.17361 11.165 8.28027C11.2982 8.38687 11.3652 8.5333 11.3652 8.71973H12.5645C12.5644 8.21866 12.3888 7.82158 12.0371 7.52832C11.6905 7.22969 11.2183 7.08011 10.6211 7.08008ZM4.32031 7.16016V8.28027H5.7998V13H7V8.28027H8.48047V7.16016H4.32031Z" fill="#4996DD"/>
</svg>
